<?xml version="1.0" encoding="utf-8"?>
<!-- Generator: Adobe Illustrator 19.2.1, SVG Export Plug-In . SVG Version: 6.00 Build 0)  -->
<!DOCTYPE svg PUBLIC "-//W3C//DTD SVG 1.1//EN" "http://www.w3.org/Graphics/SVG/1.1/DTD/svg11.dtd">
<svg version="1.1" id="Layer_1" xmlns="http://www.w3.org/2000/svg" xmlns:xlink="http://www.w3.org/1999/xlink" x="0px" y="0px"
	 viewBox="0 0 100 100" style="enable-background:new 0 0 100 100;" xml:space="preserve">
<style type="text/css">
	.st0{fill:#FFFFFF;}
</style>
<path class="st0" d="M50,0C22.5,0,0.1,22.4,0.1,50s22.3,50,49.9,50s49.9-22.4,49.9-50S77.5,0,50,0z M21.1,63.3
	c-7.3,0-13.3-6-13.3-13.3s5.9-13.3,13.3-13.3s13.3,6,13.3,13.3S28.4,63.3,21.1,63.3z M50.1,92.3c-7.3,0-13.3-6-13.3-13.3
	c0-7.3,5.9-13.3,13.3-13.3c7.3,0,13.3,6,13.3,13.3C63.4,86.3,57.4,92.3,50.1,92.3z M44.8,50c0-2.9,2.4-5.3,5.3-5.3
	c2.9,0,5.3,2.4,5.3,5.3c0,2.9-2.4,5.3-5.3,5.3C47.2,55.3,44.8,53,44.8,50z M50.1,34.3c-7.3,0-13.3-6-13.3-13.3S42.8,7.7,50.1,7.7
	c7.3,0,13.3,6,13.3,13.3S57.4,34.3,50.1,34.3z M78.9,63.3c-7.3,0-13.3-6-13.3-13.3s5.9-13.3,13.3-13.3c7.3,0,13.3,6,13.3,13.3
	S86.2,63.3,78.9,63.3z"/>
</svg>
